<mxfile host="app.diagrams.net" agent="Mozilla/5.0 (Windows NT 10.0; Win64; x64; rv:138.0) Gecko/20100101 Firefox/138.0" version="27.0.1">
  <diagram id="C5RBs43oDa-KdzZeNtuy" name="Page-1">
    <mxGraphModel dx="821" dy="531" grid="1" gridSize="10" guides="1" tooltips="1" connect="1" arrows="1" fold="1" page="1" pageScale="1" pageWidth="827" pageHeight="1169" math="0" shadow="0">
      <root>
        <mxCell id="WIyWlLk6GJQsqaUBKTNV-0" />
        <mxCell id="WIyWlLk6GJQsqaUBKTNV-1" parent="WIyWlLk6GJQsqaUBKTNV-0" />
        <mxCell id="XeKnSbgzlpwQuWAGhSZf-9" style="rounded=0;orthogonalLoop=1;jettySize=auto;html=1;exitX=1;exitY=0.5;exitDx=0;exitDy=0;entryX=0;entryY=0.5;entryDx=0;entryDy=0;endArrow=none;startFill=0;labelPosition=center;verticalLabelPosition=middle;align=center;verticalAlign=middle;textShadow=0;" edge="1" parent="WIyWlLk6GJQsqaUBKTNV-1" source="XeKnSbgzlpwQuWAGhSZf-0" target="XeKnSbgzlpwQuWAGhSZf-1">
          <mxGeometry relative="1" as="geometry" />
        </mxCell>
        <mxCell id="XeKnSbgzlpwQuWAGhSZf-14" style="rounded=0;orthogonalLoop=1;jettySize=auto;html=1;exitX=1;exitY=1;exitDx=0;exitDy=0;entryX=0;entryY=0;entryDx=0;entryDy=0;endArrow=none;startFill=0;" edge="1" parent="WIyWlLk6GJQsqaUBKTNV-1" source="XeKnSbgzlpwQuWAGhSZf-0" target="XeKnSbgzlpwQuWAGhSZf-4">
          <mxGeometry relative="1" as="geometry" />
        </mxCell>
        <mxCell id="XeKnSbgzlpwQuWAGhSZf-25" style="rounded=0;orthogonalLoop=1;jettySize=auto;html=1;exitX=0;exitY=1;exitDx=0;exitDy=0;entryX=0.5;entryY=0;entryDx=0;entryDy=0;" edge="1" parent="WIyWlLk6GJQsqaUBKTNV-1" source="XeKnSbgzlpwQuWAGhSZf-0" target="XeKnSbgzlpwQuWAGhSZf-2">
          <mxGeometry relative="1" as="geometry" />
        </mxCell>
        <mxCell id="XeKnSbgzlpwQuWAGhSZf-0" value="Film" style="rounded=0;whiteSpace=wrap;html=1;" vertex="1" parent="WIyWlLk6GJQsqaUBKTNV-1">
          <mxGeometry x="160" y="80" width="120" height="60" as="geometry" />
        </mxCell>
        <mxCell id="XeKnSbgzlpwQuWAGhSZf-1" value="Genre" style="rounded=0;whiteSpace=wrap;html=1;" vertex="1" parent="WIyWlLk6GJQsqaUBKTNV-1">
          <mxGeometry x="400" y="80" width="120" height="60" as="geometry" />
        </mxCell>
        <mxCell id="XeKnSbgzlpwQuWAGhSZf-2" value="&lt;div&gt;Main&lt;/div&gt;&lt;div&gt;Actor&lt;/div&gt;" style="rounded=0;whiteSpace=wrap;html=1;" vertex="1" parent="WIyWlLk6GJQsqaUBKTNV-1">
          <mxGeometry x="40" y="240" width="120" height="60" as="geometry" />
        </mxCell>
        <mxCell id="XeKnSbgzlpwQuWAGhSZf-18" style="rounded=0;orthogonalLoop=1;jettySize=auto;html=1;exitX=1;exitY=1;exitDx=0;exitDy=0;entryX=0;entryY=0;entryDx=0;entryDy=0;endArrow=none;startFill=0;" edge="1" parent="WIyWlLk6GJQsqaUBKTNV-1" source="XeKnSbgzlpwQuWAGhSZf-3" target="XeKnSbgzlpwQuWAGhSZf-7">
          <mxGeometry relative="1" as="geometry" />
        </mxCell>
        <mxCell id="XeKnSbgzlpwQuWAGhSZf-3" value="Scene" style="rounded=0;whiteSpace=wrap;html=1;" vertex="1" parent="WIyWlLk6GJQsqaUBKTNV-1">
          <mxGeometry x="280" y="240" width="120" height="60" as="geometry" />
        </mxCell>
        <mxCell id="XeKnSbgzlpwQuWAGhSZf-4" value="Director" style="rounded=0;whiteSpace=wrap;html=1;" vertex="1" parent="WIyWlLk6GJQsqaUBKTNV-1">
          <mxGeometry x="520" y="240" width="120" height="60" as="geometry" />
        </mxCell>
        <mxCell id="XeKnSbgzlpwQuWAGhSZf-5" value="Actor" style="rounded=0;whiteSpace=wrap;html=1;" vertex="1" parent="WIyWlLk6GJQsqaUBKTNV-1">
          <mxGeometry x="40" y="400" width="120" height="60" as="geometry" />
        </mxCell>
        <mxCell id="XeKnSbgzlpwQuWAGhSZf-6" value="&lt;div&gt;Supporting&lt;/div&gt;&lt;div&gt;Actor&lt;/div&gt;" style="rounded=0;whiteSpace=wrap;html=1;" vertex="1" parent="WIyWlLk6GJQsqaUBKTNV-1">
          <mxGeometry x="280" y="400" width="120" height="60" as="geometry" />
        </mxCell>
        <mxCell id="XeKnSbgzlpwQuWAGhSZf-7" value="Set" style="rounded=0;whiteSpace=wrap;html=1;" vertex="1" parent="WIyWlLk6GJQsqaUBKTNV-1">
          <mxGeometry x="520" y="400" width="120" height="60" as="geometry" />
        </mxCell>
        <mxCell id="XeKnSbgzlpwQuWAGhSZf-12" value="1..*" style="text;html=1;align=center;verticalAlign=middle;resizable=0;points=[];autosize=1;strokeColor=none;fillColor=none;" vertex="1" parent="WIyWlLk6GJQsqaUBKTNV-1">
          <mxGeometry x="280" y="80" width="40" height="30" as="geometry" />
        </mxCell>
        <mxCell id="XeKnSbgzlpwQuWAGhSZf-13" value="1" style="text;html=1;align=center;verticalAlign=middle;resizable=0;points=[];autosize=1;strokeColor=none;fillColor=none;" vertex="1" parent="WIyWlLk6GJQsqaUBKTNV-1">
          <mxGeometry x="370" y="80" width="30" height="30" as="geometry" />
        </mxCell>
        <mxCell id="XeKnSbgzlpwQuWAGhSZf-15" value="1..*" style="text;html=1;align=center;verticalAlign=middle;resizable=0;points=[];autosize=1;strokeColor=none;fillColor=none;" vertex="1" parent="WIyWlLk6GJQsqaUBKTNV-1">
          <mxGeometry x="260" y="140" width="40" height="30" as="geometry" />
        </mxCell>
        <mxCell id="XeKnSbgzlpwQuWAGhSZf-16" value="1..2" style="text;html=1;align=center;verticalAlign=middle;resizable=0;points=[];autosize=1;strokeColor=none;fillColor=none;" vertex="1" parent="WIyWlLk6GJQsqaUBKTNV-1">
          <mxGeometry x="485" y="240" width="40" height="30" as="geometry" />
        </mxCell>
        <mxCell id="XeKnSbgzlpwQuWAGhSZf-17" value="" style="endArrow=diamondThin;endFill=1;endSize=24;html=1;rounded=0;exitX=0;exitY=0;exitDx=0;exitDy=0;entryX=0.5;entryY=1;entryDx=0;entryDy=0;" edge="1" parent="WIyWlLk6GJQsqaUBKTNV-1" source="XeKnSbgzlpwQuWAGhSZf-3" target="XeKnSbgzlpwQuWAGhSZf-0">
          <mxGeometry width="160" relative="1" as="geometry">
            <mxPoint x="270" y="230" as="sourcePoint" />
            <mxPoint x="220" y="160" as="targetPoint" />
          </mxGeometry>
        </mxCell>
        <mxCell id="XeKnSbgzlpwQuWAGhSZf-19" value="1" style="text;html=1;align=center;verticalAlign=middle;resizable=0;points=[];autosize=1;strokeColor=none;fillColor=none;" vertex="1" parent="WIyWlLk6GJQsqaUBKTNV-1">
          <mxGeometry x="520" y="370" width="30" height="30" as="geometry" />
        </mxCell>
        <mxCell id="XeKnSbgzlpwQuWAGhSZf-20" value="1..*" style="text;html=1;align=center;verticalAlign=middle;resizable=0;points=[];autosize=1;strokeColor=none;fillColor=none;" vertex="1" parent="WIyWlLk6GJQsqaUBKTNV-1">
          <mxGeometry x="400" y="270" width="40" height="30" as="geometry" />
        </mxCell>
        <mxCell id="XeKnSbgzlpwQuWAGhSZf-21" value="1" style="text;html=1;align=center;verticalAlign=middle;resizable=0;points=[];autosize=1;strokeColor=none;fillColor=none;" vertex="1" parent="WIyWlLk6GJQsqaUBKTNV-1">
          <mxGeometry x="190" y="150" width="30" height="30" as="geometry" />
        </mxCell>
        <mxCell id="XeKnSbgzlpwQuWAGhSZf-22" value="5..*" style="text;html=1;align=center;verticalAlign=middle;resizable=0;points=[];autosize=1;strokeColor=none;fillColor=none;" vertex="1" parent="WIyWlLk6GJQsqaUBKTNV-1">
          <mxGeometry x="240" y="240" width="40" height="30" as="geometry" />
        </mxCell>
        <mxCell id="XeKnSbgzlpwQuWAGhSZf-23" value="Extends" style="endArrow=block;endSize=16;endFill=0;html=1;rounded=0;exitX=0.5;exitY=1;exitDx=0;exitDy=0;entryX=0.5;entryY=0;entryDx=0;entryDy=0;" edge="1" parent="WIyWlLk6GJQsqaUBKTNV-1" source="XeKnSbgzlpwQuWAGhSZf-2" target="XeKnSbgzlpwQuWAGhSZf-5">
          <mxGeometry width="160" relative="1" as="geometry">
            <mxPoint x="70" y="360" as="sourcePoint" />
            <mxPoint x="230" y="360" as="targetPoint" />
          </mxGeometry>
        </mxCell>
        <mxCell id="XeKnSbgzlpwQuWAGhSZf-24" value="Extends" style="endArrow=block;endSize=16;endFill=0;html=1;rounded=0;entryX=1;entryY=0.5;entryDx=0;entryDy=0;exitX=0;exitY=0.5;exitDx=0;exitDy=0;" edge="1" parent="WIyWlLk6GJQsqaUBKTNV-1" source="XeKnSbgzlpwQuWAGhSZf-6" target="XeKnSbgzlpwQuWAGhSZf-5">
          <mxGeometry width="160" relative="1" as="geometry">
            <mxPoint x="330" y="270" as="sourcePoint" />
            <mxPoint x="490" y="270" as="targetPoint" />
          </mxGeometry>
        </mxCell>
        <mxCell id="XeKnSbgzlpwQuWAGhSZf-26" value="1..4" style="text;html=1;align=center;verticalAlign=middle;resizable=0;points=[];autosize=1;strokeColor=none;fillColor=none;" vertex="1" parent="WIyWlLk6GJQsqaUBKTNV-1">
          <mxGeometry x="60" y="210" width="40" height="30" as="geometry" />
        </mxCell>
        <mxCell id="XeKnSbgzlpwQuWAGhSZf-27" value="1" style="text;html=1;align=center;verticalAlign=middle;resizable=0;points=[];autosize=1;strokeColor=none;fillColor=none;" vertex="1" parent="WIyWlLk6GJQsqaUBKTNV-1">
          <mxGeometry x="130" y="110" width="30" height="30" as="geometry" />
        </mxCell>
        <mxCell id="XeKnSbgzlpwQuWAGhSZf-28" value="" style="endArrow=open;endFill=1;endSize=12;html=1;rounded=0;entryX=1;entryY=0;entryDx=0;entryDy=0;exitX=0;exitY=1;exitDx=0;exitDy=0;" edge="1" parent="WIyWlLk6GJQsqaUBKTNV-1" source="XeKnSbgzlpwQuWAGhSZf-3" target="XeKnSbgzlpwQuWAGhSZf-5">
          <mxGeometry width="160" relative="1" as="geometry">
            <mxPoint x="330" y="270" as="sourcePoint" />
            <mxPoint x="490" y="270" as="targetPoint" />
          </mxGeometry>
        </mxCell>
        <mxCell id="XeKnSbgzlpwQuWAGhSZf-29" value="Contains" style="edgeLabel;html=1;align=center;verticalAlign=middle;resizable=0;points=[];" vertex="1" connectable="0" parent="XeKnSbgzlpwQuWAGhSZf-28">
          <mxGeometry x="-0.0344" y="-2" relative="1" as="geometry">
            <mxPoint y="1" as="offset" />
          </mxGeometry>
        </mxCell>
      </root>
    </mxGraphModel>
  </diagram>
</mxfile>
